<svg width="16" height="16" viewBox="0 0 16 16" fill="none" xmlns="http://www.w3.org/2000/svg">
<path d="M8.11148 3.69056C5.96154 3.69056 4.22739 5.42471 4.22739 7.57465C4.22739 9.72459 5.96154 11.4587 8.11148 11.4587C10.2614 11.4587 11.9956 9.72459 11.9956 7.57465C11.9956 5.42471 10.2614 3.69056 8.11148 3.69056ZM8.11148 10.0998C6.72213 10.0998 5.58631 8.96738 5.58631 7.57465C5.58631 6.18192 6.71875 5.04949 8.11148 5.04949C9.50421 5.04949 10.6366 6.18192 10.6366 7.57465C10.6366 8.96738 9.50083 10.0998 8.11148 10.0998ZM13.0604 3.53168C13.0604 4.03536 12.6547 4.43763 12.1544 4.43763C11.6508 4.43763 11.2485 4.03198 11.2485 3.53168C11.2485 3.03138 11.6541 2.62573 12.1544 2.62573C12.6547 2.62573 13.0604 3.03138 13.0604 3.53168ZM15.6329 4.45115C15.5754 3.23759 15.2982 2.16262 14.4092 1.27695C13.5235 0.391282 12.4485 0.114089 11.235 0.0532414C9.98423 -0.0177471 6.23535 -0.0177471 4.9846 0.0532414C3.77441 0.110708 2.69944 0.387902 1.8104 1.27357C0.921349 2.15924 0.647536 3.23421 0.586689 4.44777C0.5157 5.69852 0.5157 9.4474 0.586689 10.6981C0.644156 11.9117 0.921349 12.9867 1.8104 13.8724C2.69944 14.758 3.77103 15.0352 4.9846 15.0961C6.23535 15.167 9.98423 15.167 11.235 15.0961C12.4485 15.0386 13.5235 14.7614 14.4092 13.8724C15.2948 12.9867 15.572 11.9117 15.6329 10.6981C15.7039 9.4474 15.7039 5.7019 15.6329 4.45115ZM14.0171 12.0402C13.7534 12.7027 13.2429 13.2132 12.577 13.4802C11.5798 13.8757 9.21349 13.7845 8.11148 13.7845C7.00947 13.7845 4.6398 13.8724 3.64596 13.4802C2.9834 13.2166 2.47296 12.7061 2.2059 12.0402C1.8104 11.0429 1.90167 8.67666 1.90167 7.57465C1.90167 6.47264 1.81378 4.10297 2.2059 3.10913C2.46958 2.44657 2.98002 1.93613 3.64596 1.66908C4.64318 1.27357 7.00947 1.36484 8.11148 1.36484C9.21349 1.36484 11.5832 1.27695 12.577 1.66908C13.2396 1.93275 13.75 2.44319 14.0171 3.10913C14.4126 4.10635 14.3213 6.47264 14.3213 7.57465C14.3213 8.67666 14.4126 11.0463 14.0171 12.0402Z" fill="#2A2F2F"/>
</svg>
