<svg width="13" height="13" viewBox="0 0 13 13" fill="none" xmlns="http://www.w3.org/2000/svg">
<path d="M7.23576 5.49028V12.5908H4.83276V3.56287H7.08558L7.23576 5.49028ZM6.88533 7.75978H6.23451C6.23451 7.09228 6.32073 6.49153 6.49317 5.95753C6.66561 5.41796 6.90758 4.95906 7.21908 4.58081C7.53058 4.197 7.90048 3.90496 8.3288 3.70471C8.76267 3.4989 9.24661 3.396 9.78061 3.396C10.2034 3.396 10.59 3.45718 10.9404 3.57956C11.2908 3.70193 11.5912 3.89662 11.8415 4.16362C12.0974 4.43062 12.2921 4.78384 12.4256 5.22328C12.5646 5.66271 12.6342 6.1995 12.6342 6.83362V12.5908H10.2145V6.82528C10.2145 6.42478 10.1589 6.11328 10.0476 5.89078C9.93636 5.66828 9.77226 5.51253 9.55533 5.42353C9.34395 5.32896 9.08251 5.28168 8.77101 5.28168C8.44839 5.28168 8.16748 5.34565 7.9283 5.47359C7.69467 5.60153 7.49998 5.77953 7.34423 6.00759C7.19405 6.23009 7.08001 6.49153 7.00214 6.7919C6.92426 7.09228 6.88533 7.4149 6.88533 7.75978Z" fill="#2A2F2F"/>
<path d="M2.55518 3.56278V12.5907H0.14384V3.56278H2.55518ZM-0.00634766 1.20984C-0.00634766 0.859407 0.116027 0.570156 0.360777 0.342094C0.605527 0.114031 0.933715 0 1.34534 0C1.7514 0 2.07681 0.114031 2.32156 0.342094C2.57187 0.570156 2.69703 0.859407 2.69703 1.20984C2.69703 1.56028 2.57187 1.84953 2.32156 2.07759C2.07681 2.30566 1.7514 2.41969 1.34534 2.41969C0.933715 2.41969 0.605527 2.30566 0.360777 2.07759C0.116027 1.84953 -0.00634766 1.56028 -0.00634766 1.20984Z" fill="#2A2F2F"/>
</svg>
