<svg width="800" height="800" viewBox="0 0 800 800" fill="none" xmlns="http://www.w3.org/2000/svg">
<path fill-rule="evenodd" clip-rule="evenodd" d="M160.271 361.772C135.812 365.06 122.86 371.075 113.634 380.301C104.409 389.527 98.3937 402.479 95.1053 426.938C91.7201 452.117 91.667 485.487 91.667 533.333C91.667 581.18 91.7201 614.55 95.1053 639.728C98.3937 664.187 104.409 677.14 113.634 686.366C122.86 695.592 135.812 701.607 160.271 704.895C185.449 708.28 218.82 708.333 266.667 708.333H533.334C581.18 708.333 614.55 708.28 639.729 704.895C664.188 701.607 677.14 695.592 686.366 686.366C695.592 677.14 701.607 664.187 704.895 639.728C708.281 614.55 708.334 581.18 708.334 533.333C708.334 485.487 708.281 452.117 704.895 426.938C701.607 402.48 695.592 389.527 686.366 380.301C677.14 371.075 664.188 365.06 639.729 361.772C614.55 358.386 581.18 358.333 533.334 358.333H266.667C218.82 358.333 185.449 358.386 160.271 361.772ZM264.838 308.333H535.163C580.749 308.333 617.492 308.332 646.391 312.218C676.395 316.252 701.657 324.882 721.721 344.946C741.785 365.01 750.416 390.272 754.45 420.276C758.335 449.175 758.334 485.918 758.334 531.504V535.163C758.334 580.748 758.335 617.492 754.45 646.391C750.416 676.395 741.785 701.657 721.721 721.721C701.657 741.785 676.395 750.415 646.391 754.449C617.492 758.335 580.748 758.334 535.162 758.333H264.839C219.252 758.334 182.508 758.335 153.609 754.449C123.605 750.415 98.3424 741.785 78.2785 721.721C58.2148 701.657 49.585 676.394 45.5511 646.391C41.6658 617.492 41.6663 580.748 41.667 535.162V531.504C41.6663 485.918 41.6658 449.175 45.5511 420.276C49.585 390.272 58.2148 365.01 78.2785 344.946C98.3424 324.882 123.605 316.252 153.609 312.218C182.507 308.332 219.252 308.333 264.838 308.333Z" fill="#1C274C"/>
<path fill-rule="evenodd" clip-rule="evenodd" d="M400 91.6667C303.35 91.6667 225 170.017 225 266.667V333.333C225 347.14 213.807 358.333 200 358.333C186.193 358.333 175 347.14 175 333.333V266.667C175 142.403 275.736 41.6667 400 41.6667C524.264 41.6667 625 142.403 625 266.667V333.333C625 347.14 613.807 358.333 600 358.333C586.193 358.333 575 347.14 575 333.333V266.667C575 170.017 496.65 91.6667 400 91.6667Z" fill="#1C274C"/>
</svg>
