<svg width="18" height="15" viewBox="0 0 18 15" fill="none" xmlns="http://www.w3.org/2000/svg">
<path d="M16.2146 3.50325C16.2256 3.65699 16.2256 3.81077 16.2256 3.96451C16.2256 8.65381 12.6565 14.057 6.13312 14.057C4.1234 14.057 2.25647 13.4749 0.686035 12.4646C0.971578 12.4975 1.2461 12.5085 1.54263 12.5085C3.20089 12.5085 4.72742 11.9485 5.94642 10.993C4.38697 10.9601 3.08011 9.93874 2.62984 8.53303C2.8495 8.56596 3.06912 8.58793 3.29977 8.58793C3.61824 8.58793 3.93674 8.54398 4.23323 8.46715C2.6079 8.13766 1.38886 6.71001 1.38886 4.98583V4.94192C1.86107 5.20549 2.41021 5.37022 2.99222 5.39216C2.03678 4.75519 1.41083 3.66798 1.41083 2.43798C1.41083 1.77908 1.58651 1.17506 1.89402 0.647923C3.64017 2.8004 6.26489 4.20607 9.20805 4.35985C9.15315 4.09628 9.12019 3.82176 9.12019 3.5472C9.12019 1.59238 10.7016 0 12.6674 0C13.6887 0 14.6112 0.428298 15.2591 1.12017C16.0608 0.966425 16.8295 0.669896 17.5105 0.263571C17.2469 1.08724 16.6868 1.77911 15.951 2.21836C16.6649 2.14152 17.3567 1.9438 17.9937 1.66928C17.5105 2.3721 16.9065 2.99805 16.2146 3.50325Z" fill="#2A2F2F"/>
</svg>
