<svg id="ebWuFw5HKLG1" xmlns="http://www.w3.org/2000/svg" xmlns:xlink="http://www.w3.org/1999/xlink" viewBox="0 0 41.98 16.55" shape-rendering="geometricPrecision" text-rendering="geometricPrecision"><g transform="translate(-19-14.000047)"><g><path d="M38.8537,22.0879v4.8526h-1.5502v-11.9839h4.1113c.4908-.0102.9787.0763,1.4357.2543s.8738.4443,1.2266.7832c.3564.3183.64.7087.8318,1.1449s.2874.9082.2803,1.3842c.0102.4785-.0839.9535-.2758,1.3925-.192.4391-.4773.8317-.8363,1.1509-.7189.6809-1.6063,1.0209-2.6623,1.0203h-2.5611v.001Zm0-5.6559v4.1833h2.5997c.285.0084.5686-.0424.8327-.149s.5029-.267.7011-.4706c.1971-.1903.3538-.418.4608-.6695s.1622-.5218.1622-.7949-.0552-.5433-.1622-.7948-.2637-.4792-.4608-.6696c-.1957-.2078-.4337-.372-.6981-.4817s-.5493-.1621-.8357-.1541h-2.5997v.0009Z" fill="#5f6368"/><path d="M48.7613,18.4735c1.1458,0,2.0503.3041,2.7133.9122s.9943,1.4419.9937,2.5014v5.0534h-1.4828v-1.1378h-.0674c-.6419.937-1.4956,1.4056-2.5612,1.4056-.9095,0-1.6705-.2678-2.2829-.8032-.2939-.2458-.5288-.5536-.6877-.9009s-.2378-.7256-.2308-1.1071c0-.8485.3228-1.5232.9686-2.0243.6457-.501,1.5078-.7522,2.5862-.7534.9205,0,1.6786.1673,2.2742.502v-.3519c.0018-.2601-.0547-.5173-.1655-.7529-.1107-.2357-.2729-.444-.4747-.6097-.41-.3673-.9442-.5677-1.4963-.5613-.8659,0-1.5512.3628-2.0557,1.0882l-1.3653-.8539c.751-1.0709,1.8624-1.6064,3.3343-1.6064Zm-2.0056,5.9571c-.001.1959.0451.3892.1345.5639.0895.1746.2196.3255.3797.44.3428.2679.7684.4098,1.2045.4016.6542-.001,1.2812-.2596,1.7437-.719.5135-.48.7703-1.0432.7703-1.6896-.4834-.3825-1.1573-.5737-2.022-.5737-.6297,0-1.1548.1508-1.5752.4523-.4246.306-.6355.6779-.6355,1.1245Z" fill="#5f6368"/><path d="M60.98,18.7412L55.8037,30.5549h-1.6002l1.9209-4.1336-3.4037-7.6801h1.685l2.4601,5.8901h.0337l2.3927-5.8901h1.6878Z" fill="#5f6368"/><path d="M32.5893,21.0418c.0006-.4691-.0394-.9375-.1194-1.3998h-6.5378v2.6515h3.7445c-.0766.4235-.2388.8271-.4767,1.1867s-.5468.6676-.9078.9054v1.7211h2.2347c1.3086-1.1981,2.0625-2.9699,2.0625-5.0649Z" fill="#4285f4"/><path d="M25.9323,27.7696c1.8708,0,3.446-.6101,4.5947-1.6619l-2.2348-1.7211c-.622.4188-1.4231.6578-2.3599.6578-1.8082,0-3.343-1.2105-3.8918-2.8418h-2.3022v1.7738c.577,1.1402,1.4618,2.0987,2.5555,2.7685s2.3535,1.0246,3.6385,1.0247Z" fill="#34a853"/><path d="M22.0404,22.2027c-.2902-.8548-.2902-1.7805,0-2.6353v-1.7737h-2.3022C19.2528,18.7529,19,19.8115,19,20.8851c0,1.0735.2528,2.1321.7382,3.0913l2.3022-1.7737Z" fill="#fbbc04"/><path d="M25.9323,16.7256c.9886-.0161,1.9439.3549,2.6594,1.0327l1.9786-1.965c-1.2546-1.1703-2.9168-1.8128-4.638-1.7928-1.285,0-2.5447.3547-3.6385,1.0246s-1.9785,1.6283-2.5555,2.7685l2.3022,1.7738c.5488-1.6313,2.0836-2.8418,3.8918-2.8418Z" fill="#ea4335"/></g></g></svg>
