<svg id="eh7wqfRFcLK1" xmlns="http://www.w3.org/2000/svg" xmlns:xlink="http://www.w3.org/1999/xlink" viewBox="0 0 40.44 12.42" shape-rendering="geometricPrecision" text-rendering="geometricPrecision"><g transform="translate(-20-16.9979)"><g><path d="M57.7204,17.1774h-2.5423c-.7686,0-1.3598.2365-1.7145,1.0051l-4.8481,11.056h3.4291c0,0,.5912-1.4781.7095-1.8328.3547,0,3.7247,0,4.1977,0c.1183.4138.4139,1.7737.4139,1.7737h3.0744l-2.7197-12.002Zm-4.0203,7.7451c.2956-.7095,1.3007-3.37,1.3007-3.37c0,.0591.2956-.7095.4138-1.1234l.2365,1.0643c0,0,.6504,2.897.7686,3.4882h-2.7196v-.0591Z" fill="#3362ab"/><path d="M48.852,25.2772c0,2.4832-2.2467,4.1386-5.735,4.1386-1.478,0-2.897-.2956-3.6656-.6503l.473-2.7197.4139.1774c1.0642.473,1.7737.6504,3.0744.6504.9459,0,1.951-.3548,1.951-1.1825c0-.5321-.4138-.8869-1.7145-1.4781-1.2416-.5912-2.8971-1.5372-2.8971-3.2518c0-2.3649,2.3058-3.9612,5.5576-3.9612c1.2416,0,2.3058.2365,2.9561.5321l-.4729,2.6014-.2365-.2365c-.5913-.2365-1.3599-.473-2.4832-.473-1.2416.0592-1.8328.5913-1.8328,1.0643c0,.5321.7095.9459,1.8328,1.478c1.8919.8869,2.7788,1.892,2.7788,3.3109Z" fill="#3362ab"/><path d="M20,17.2956l.0591-.2365h5.0846c.7095,0,1.2416.2365,1.419,1.0051l1.1233,5.3211c-1.1233-2.838-3.7248-5.1438-7.686-6.0897Z" fill="#f9b50b"/><path d="M34.8401,17.1774l-5.1437,12.002h-3.4883L23.252,19.1285c2.1284,1.3598,3.9021,3.4882,4.5524,4.9663l.3548,1.2416l3.1926-8.2181h3.4883v.0591Z" fill="#3362ab"/><path d="M36.1997,17.1183h3.2517L37.3821,29.1794h-3.2517l2.0693-12.0611Z" fill="#3362ab"/></g></g></svg>
