<svg id="eFSgVODkNsl1" xmlns="http://www.w3.org/2000/svg" xmlns:xlink="http://www.w3.org/1999/xlink" viewBox="0 0 54.36 13.31" shape-rendering="geometricPrecision" text-rendering="geometricPrecision"><g transform="translate(-12.997002-15.9988)"><g><g><g><g><path d="M33.7008,21.7031c-.1408,1.0562-.9857,1.0562-1.7602,1.0562h-.4225l.352-2.0419c0-.1408.1409-.2112.2817-.2112h.2112c.5633,0,1.0562,0,1.3378.2816c0,.2816,0,.5633,0,.9153Zm-.352-2.8164h-3.0277c-.2112,0-.352.1408-.4225.3521l-1.1969,7.7451c0,.1409.0704.2817.2816.2817h1.4082c.2113,0,.3521-.1408.4225-.3521l.352-2.1123c0-.2112.2113-.352.4225-.352h.9857c1.9715,0,3.0981-.9858,3.4502-2.8869.1408-.8449,0-1.4786-.3521-1.9715-.5633-.4224-1.3378-.7041-2.3235-.7041Z" fill="#263577"/><path d="M40.319,24.5196c-.1408.845-.7745,1.4082-1.6194,1.4082-.4225,0-.7745-.1408-.9858-.4224-.2112-.2817-.2816-.6337-.2112-.9858.1408-.8449.7745-1.4082,1.6195-1.4082.4224,0,.7745.1408.9857.4225.1408.2112.2816.5633.2112.9857Zm1.9715-2.8164h-1.4082c-.1408,0-.2112.0704-.2816.2112l-.0704.4225-.0704-.1408c-.2817-.4225-.9858-.6337-1.6899-.6337-1.6194,0-2.9572,1.197-3.2389,2.8868-.1408.8449.0704,1.6195.5633,2.1827.4224.4929,1.0562.7042,1.8307.7042c1.2674,0,1.9715-.845,1.9715-.845l-.0704.4225c0,.1408.0704.2816.2816.2816h1.2674c.2112,0,.352-.1408.4225-.352l.7745-4.9288c0-.0704-.0704-.2112-.2817-.2112Z" fill="#263577"/><path d="M49.9656,21.7032h-1.4787c-.1408,0-.2816.0705-.352.2113l-1.9715,2.9572-.845-2.8164c-.0704-.2112-.2112-.2816-.4224-.2816h-1.4082c-.1409,0-.2817.1408-.2113.352l1.6195,4.6471-1.4787,2.1123c-.1408.1409.0001.4225.2113.4225h1.4786c.1408,0,.2817-.0704.3521-.2112l4.7879-6.9707c.0704-.2112-.0704-.4225-.2816-.4225Z" fill="#263577"/><path d="M55.1054,21.7031c-.1409,1.0562-.9858,1.0562-1.7603,1.0562h-.4225l.3521-2.0419c0-.1408.1408-.2112.2816-.2112h.2113c.5632,0,1.0561,0,1.3378.2816.0704.2816.0704.5633,0,.9153Zm-.3521-2.8164h-3.0276c-.2113,0-.3521.1408-.4225.3521l-1.197,7.7451c0,.1409.0704.2817.2817.2817h1.549c.1408,0,.2816-.0704.2816-.2817l.3521-2.1827c0-.2112.2112-.352.4224-.352h.9858c1.9715,0,3.0981-.9858,3.4501-2.8869.1408-.8449,0-1.4786-.352-1.9715-.4929-.4224-1.2674-.7041-2.3236-.7041Z" fill="#2199d6"/><path d="M61.7946,24.5196c-.1408.845-.7745,1.4082-1.6194,1.4082-.4225,0-.7745-.1408-.9858-.4224-.2112-.2817-.2816-.6337-.2112-.9858.1408-.8449.7745-1.4082,1.6194-1.4082.4225,0,.7746.1408.9858.4225.1408.2112.2816.5633.2112.9857Zm1.9715-2.8164h-1.4082c-.1408,0-.2112.0704-.2817.2112l-.0703.4225-.0705-.1408c-.2816-.4225-.9857-.6337-1.6898-.6337-1.6195,0-2.9573,1.197-3.2389,2.8868-.1408.8449.0704,1.6195.5633,2.1827.4224.4929,1.0561.7042,1.8307.7042c1.2673,0,1.9714-.845,1.9714-.845l-.0704.4225c0,.1408.0705.2816.2817.2816h1.2674c.2112,0,.352-.1408.4224-.352l.7746-4.9288c0-.0704-.1409-.2112-.2817-.2112Z" fill="#2199d6"/><path d="M65.4559,19.098l-1.2674,7.8859c0,.1409.0704.2817.2816.2817h1.2674c.2113,0,.3521-.1408.4225-.3521l1.197-7.7451c0-.1409-.0705-.2817-.2817-.2817h-1.4082c-.0704,0-.1408.1408-.2112.2113Z" fill="#2199d6"/><path d="M16.1681,28.7443l.2113-1.4786h-.4929-2.4644L15.112,16.4929c0,0,0-.0704.0704-.0704h.0704h4.1542c1.3378,0,2.3236.2816,2.8165.8449.2112.2817.352.5633.4224.8449.0704.3521.0704.7041,0,1.197v.2817l.2113.1408c.2112.0704.352.2112.4928.352.2113.2113.3521.4929.3521.845.0704.352.0704.7745-.0704,1.2674-.1409.5632-.2817.9857-.4929,1.4082-.2112.352-.4929.6337-.7745.9153-.2817.2112-.7041.3521-1.0562.4929-.4225.0704-.8449.1408-1.3378.1408h-.352c-.2113,0-.4225.0704-.6337.2112-.1409.1409-.2817.3521-.3521.5633v.1408L18.21,28.6739v.0704.0705c0,0,0,0-.0704,0h-1.9715v-.0705Z" fill="#263577"/><path d="M23.139,19.3092c0,.0704,0,.1408-.0704.2112-.5633,2.8165-2.394,3.7318-4.788,3.7318h-1.197c-.2816,0-.5632.2112-.5632.4929l-.6337,3.943-.1409,1.1265c0,.2113.1409.3521.2817.3521h2.1827c.2817,0,.4929-.2112.4929-.4225v-.1408l.4225-2.5348v-.1408c.0704-.2816.2816-.4225.4928-.4225h.3521c2.1123,0,3.7317-.8449,4.1542-3.3093.2112-1.0561.0704-1.901-.4224-2.4643-.1409-.1409-.3521-.2817-.5633-.4225Z" fill="#2199d6"/><path d="M22.5756,19.098c-.0704,0-.1408-.0705-.2817-.0705-.0704,0-.2112-.0704-.2816-.0704-.3521-.0704-.7041-.0704-1.0562-.0704h-3.2389c-.0704,0-.1408,0-.2112.0704-.1408.0704-.2816.2113-.2816.3521l-.7041,4.3654v.1409c.0704-.2817.2816-.4929.5632-.4929h1.197c2.394,0,4.2247-.9858,4.7879-3.7318c0-.0704,0-.1408.0705-.2112-.1409-.0704-.2817-.1408-.4225-.2112-.0704-.0704-.1408-.0704-.1408-.0704Z" fill="#252c5e"/><path d="M17.2246,19.3093c0-.1408.1409-.2816.2817-.3521.0704,0,.1408-.0704.2112-.0704h3.2389c.352,0,.7745,0,1.0562.0704.0704,0,.2112,0,.2816.0705.0704,0,.1408.0704.2816.0704.0705,0,.0705,0,.1409.0704.1408.0704.2816.1408.4224.2112.1409-1.0561,0-1.7603-.5633-2.394C21.9421,16.2816,20.8156,16,19.4074,16h-4.1543c-.2816,0-.5632.2112-.5632.4929L13,27.3361c0,.2112.1408.4225.3521.4225h2.5347l.6337-4.0838.7041-4.3655Z" fill="#263577"/></g></g></g></g></g></svg>
