<svg id="ef6c3SmFED71" xmlns="http://www.w3.org/2000/svg" xmlns:xlink="http://www.w3.org/1999/xlink" viewBox="0 0 52.03 14.95" shape-rendering="geometricPrecision" text-rendering="geometricPrecision"><g transform="translate(-13.998198-15.998034)"><g><path d="M16.0004,21.6599c-.1101.2753-.1652.569-.2386.8626-.1835.8809-.3303,1.8169-.5322,2.6978-.4038,0-.8259,0-1.2296,0c.4588-2.9731,1.303-5.8727,1.67-9.066.4038,0,.8075,0,1.1929,0-.055.2936-.1284.5689-.1651.8626c0,.0183-.0367.0367-.0367.0734.5505-.7158,1.3947-1.2113,2.7344-1.0645c1.3214.1285,2.0371,1.1746,2.0922,2.4042.1284,2.349-1.1195,4.4779-3.6888,4.2944-.8442-.0551-1.4865-.3671-1.7985-1.0645Zm1.7251-4.4595c-1.0828.5505-2.1289,3.0831-.8993,4.1659.8075.7157,2.0738.3303,2.606-.3303.6056-.7525,1.1562-2.918.2386-3.6888-.312-.2569-.8075-.3487-1.2663-.2936-.3303.0183-.4955.055-.679.1468Z" clip-rule="evenodd" fill="#030000" fill-rule="evenodd"/><path d="M27.1586,22.5958c-.3854,0-.7708,0-1.1746,0c.0551-.367.1285-.7157.2019-1.0644-.3487.5138-.9543,1.1011-1.8352,1.1929-1.2663.1284-2.4225-.5139-2.5326-1.56-.0367-.3486-.0183-.9176.2753-1.358.7341-1.1562,2.6427-1.2296,4.533-1.1745.5689-2.0922-2.4776-1.7802-3.5236-1.1012.055-.4037.1468-.7891.2018-1.1929c1.8903-.5872,4.4412-.4404,4.5881,1.5967.055.8075-.1836,1.5966-.3304,2.3674-.1468.7524-.2936,1.4865-.4037,2.294Zm-4.0008-1.67c.0367.5322.624.8258,1.1011.8258c1.303.0184,1.927-1.1195,2.1289-2.2389-1.4682-.0735-3.3217.1101-3.23,1.4131Z" clip-rule="evenodd" fill="#030000" fill-rule="evenodd"/><path d="M29.9848,16.1726c.2753,1.7068.6056,3.3584.8626,5.1019.9726-1.67,1.8719-3.4135,2.8262-5.1019.4405,0,.8809,0,1.3397,0-1.1745,2.1289-2.5509,4.4596-3.8723,6.6985-.4037.6974-.8075,1.6334-1.3947,2.0922-.5139.4037-1.5049.4955-2.3308.3303.0184-.367.1468-.6423.1652-.991.1652-.0183.367.0918.5689.0918.8993,0,1.3948-.8259,1.7251-1.4682-.3854-2.2206-.8075-4.4229-1.1929-6.6618-.0367-.0367-.0183-.0551,0-.0918.4405,0,.8809,0,1.303,0Z" clip-rule="evenodd" fill="#030000" fill-rule="evenodd"/><path d="M35.5455,26.358c-.2752,1.56-.6239,3.0281-.8992,4.5881-.8626,0-1.7251,0-2.606,0c.4037-1.9087.7524-3.7989,1.1378-5.6892.3854-1.8719.8442-3.7438,1.0644-5.7259.6974-.055,1.6334-.055,2.3308,0-.0184.4405-.1285.8075-.1652,1.2296.679-.679,1.4131-1.5783,2.973-1.4314c1.4866.1468,2.3124,1.3947,2.4225,2.973.2019,2.7161-1.1195,5.3772-3.5052,5.5607-1.4866.1101-2.1839-.5689-2.7529-1.5049Zm1.0461-4.0558c-.6056.8626-.8075,2.5142-.0367,3.1566.4772.4037,1.3581.2018,1.7618-.1285.5139-.4221.8809-1.2296.8626-2.239-.0184-.9176-.4221-1.6884-1.3948-1.5599-.5689.0734-.9176.3671-1.1929.7708Z" clip-rule="evenodd" fill="#009651" fill-rule="evenodd"/><path d="M48.9425,27.6978c-.679-.0184-1.4498.0367-2.0738-.0367.0734-.3671.0734-.8259.1285-1.1929-.2019.2019-.3487.4955-.6057.7341-.8442.7708-2.7344.9359-3.6704.1651-1.0093-.8442-.8442-2.8629,0-3.7254.9727-1.0094,2.8079-1.2663,4.6982-1.0645.1835-.7708-.3304-1.2479-.9727-1.3397-.936-.1284-2.1839.2753-2.7345.6056.1102-.6606.1469-1.3764.2753-2.037.6607-.2386,1.2847-.4221,2.0738-.4588c2.1839-.1469,3.6888.5872,3.8356,2.4591.0734.9911-.2202,2.0188-.4404,2.9914-.2019.9543-.3487,1.927-.5139,2.8997Zm-2.6244-3.6705c-.7891.0184-1.6517.2753-1.8352.8626-.1468.5139.2203.991.6056,1.0644c1.2113.2569,2.0371-.9359,2.1289-1.8903-.2753-.055-.679-.0367-.8993-.0367Z" clip-rule="evenodd" fill="#009651" fill-rule="evenodd"/><path d="M56.9441,19.8063c-.1285.6607-.3671,1.2112-.4955,1.8719-.6424-.2202-1.4132-.5506-2.4225-.4405-.4038.0551-.8075.257-.8075.6607.0183.4955.7708.6791,1.2296.8626.6423.2753,1.4131.6423,1.7251,1.1929.5322.9543,0,2.349-.5689,2.9363-.4772.4955-1.3764.8993-2.2941.9727-1.1928.0917-2.4408-.1285-3.4685-.4038.1468-.679.312-1.303.4955-1.927.679.2753,1.4498.5323,2.4959.4405.4955-.0551,1.0461-.2202.9727-.8075-.0551-.4772-.7708-.6423-1.303-.8625-.9911-.4038-1.7251-.9177-1.7251-2.2574c0-2.7528,3.8172-3.2116,6.1663-2.2389Z" clip-rule="evenodd" fill="#009651" fill-rule="evenodd"/><path d="M63.4407,19.8063c-.1468.6423-.3487,1.248-.5322,1.8719-.6056-.2385-1.3948-.5505-2.4041-.4404-.4038.0367-.8075.2386-.8075.6607.0183.5138.9359.7891,1.358.9726.8626.3671,1.6884.7708,1.7985,1.7618.1101.9727-.2936,1.7618-.8625,2.294-.5322.5139-1.3214.8626-2.2023.936-1.2112.0918-2.3858-.1285-3.4685-.4037.1101-.6974.3303-1.2663.4588-1.927.4955.1468.9726.3854,1.5599.4404.8258.0734,1.9453.0184,1.927-.6974-.0184-.7707-1.615-.9359-2.239-1.4314-.679-.5322-1.1011-1.8352-.5689-2.8997.8809-1.6516,3.909-2.0187,5.9828-1.1378Z" clip-rule="evenodd" fill="#009651" fill-rule="evenodd"/><g><path d="M64.4133,20.6506h-.3303l.0184-.1285h.8075l-.0184.1285h-.3303l-.1836,1.0093h-.1468l.1835-1.0093Z" fill="#009651"/><path d="M65.7713,21.6599l.0734-.6056c.0183-.1101.0367-.2753.0551-.3854-.0551.1101-.1102.2569-.1836.3671l-.3303.6239h-.1101l-.0918-.6056c-.0183-.1285-.0367-.2569-.0367-.3854-.0183.1101-.055.2753-.0917.3854l-.1469.6056h-.1284l.2936-1.1378h.1835l.0918.6423c.0183.0918.0183.2019.0183.2937.0367-.0918.0918-.1836.1285-.2753l.3487-.6607h.1835l-.1468,1.1378h-.1101Z" fill="#009651"/></g></g></g></svg>
